# xmcd
#
# Track frame offsets:
#	150
#	19394
#	39331
#	54859
#	90439
#	113030
#	128732
#	149200
#	165587
#
# Disc length: 2543 seconds
#
# Revision: 1
# Processed by: cddbd v1.5.1PL0 Copyright (c) Steve Scherf et al.
# Submitted via: audiograbber 1.83.01
#
DISCID=7109ed09
DTITLE=Elvin Bishop - What The Hell Is Goin On
DYEAR=2004
DGENRE=
TTITLE0=Party 'Til The Cows Come Home
TTITLE1=That's My Thing
TTITLE2=What The Hell Is Goin' On
TTITLE3=Blues Train
TTITLE4=Got To Be New Orleans
TTITLE5=Sweet Dreams
TTITLE6=He's A Dog
TTITLE7=Come On Blues
TTITLE8=Groove Back
EXTD=
EXTT0=
EXTT1=
EXTT2=
EXTT3=
EXTT4=
EXTT5=
EXTT6=
EXTT7=
EXTT8=
PLAYORDER=
